<mxfile host="app.diagrams.net" agent="Mozilla/5.0 (Windows NT 10.0; Win64; x64; rv:137.0) Gecko/20100101 Firefox/137.0" version="26.2.13" pages="5">
  <diagram name="Home" id="m3p1anmeGlQlZ_gaRgTG">
    <mxGraphModel grid="1" page="1" gridSize="10" guides="1" tooltips="1" connect="1" arrows="1" fold="1" pageScale="1" pageWidth="850" pageHeight="1100" math="0" shadow="0">
      <root>
        <mxCell id="0" />
        <mxCell id="1" parent="0" />
        <mxCell id="7MSCEv9BfSI9_L8rwZjE-1" value="" style="rounded=0;whiteSpace=wrap;html=1;aspect=fixed;" vertex="1" parent="1">
          <mxGeometry x="39" y="30" width="771.43" height="450" as="geometry" />
        </mxCell>
        <mxCell id="SDxlc9h2V8L7HHk7E8Bk-2" value="Projects" style="rounded=0;whiteSpace=wrap;html=1;" vertex="1" parent="1">
          <mxGeometry x="340" y="55" width="70" height="30" as="geometry" />
        </mxCell>
        <mxCell id="SDxlc9h2V8L7HHk7E8Bk-3" value="Actor" style="shape=umlActor;verticalLabelPosition=bottom;verticalAlign=top;html=1;outlineConnect=0;rounded=0;shadow=1;strokeWidth=1;dashed=1;dashPattern=1 4;sketch=1;curveFitting=1;jiggle=2;" vertex="1" parent="1">
          <mxGeometry x="530" y="510" width="30" height="60" as="geometry" />
        </mxCell>
        <mxCell id="SDxlc9h2V8L7HHk7E8Bk-4" value="About" style="rounded=0;whiteSpace=wrap;html=1;" vertex="1" parent="1">
          <mxGeometry x="660" y="55" width="70" height="30" as="geometry" />
        </mxCell>
        <mxCell id="SDxlc9h2V8L7HHk7E8Bk-11" value="Providers" style="rounded=0;whiteSpace=wrap;html=1;" vertex="1" parent="1">
          <mxGeometry x="500" y="55" width="70" height="30" as="geometry" />
        </mxCell>
        <mxCell id="7MSCEv9BfSI9_L8rwZjE-6" value="LOGO" style="ellipse;whiteSpace=wrap;html=1;aspect=fixed;rounded=0;" vertex="1" parent="1">
          <mxGeometry x="60" y="40" width="60" height="60" as="geometry" />
        </mxCell>
        <mxCell id="7MSCEv9BfSI9_L8rwZjE-10" value="" style="endArrow=none;html=1;rounded=0;exitX=0.001;exitY=0.172;exitDx=0;exitDy=0;exitPerimeter=0;entryX=1.001;entryY=0.17;entryDx=0;entryDy=0;entryPerimeter=0;" edge="1" parent="1" source="7MSCEv9BfSI9_L8rwZjE-1" target="7MSCEv9BfSI9_L8rwZjE-1">
          <mxGeometry width="50" height="50" relative="1" as="geometry">
            <mxPoint x="40" y="107" as="sourcePoint" />
            <mxPoint x="813" y="107" as="targetPoint" />
          </mxGeometry>
        </mxCell>
        <mxCell id="SDxlc9h2V8L7HHk7E8Bk-15" value="" style="rounded=0;whiteSpace=wrap;html=1;" vertex="1" parent="1">
          <mxGeometry x="90" y="500" width="120" height="60" as="geometry" />
        </mxCell>
        <mxCell id="SDxlc9h2V8L7HHk7E8Bk-17" value="Your Cloud Pricing Options, All in One Place" style="text;html=1;align=center;verticalAlign=middle;whiteSpace=wrap;rounded=0;fontSize=18;" vertex="1" parent="1">
          <mxGeometry x="340" y="240" width="150" height="40" as="geometry" />
        </mxCell>
        <mxCell id="24RHL41Hky91KYgUohqA-1" value="Banner Logo" style="rounded=1;whiteSpace=wrap;html=1;" vertex="1" parent="1">
          <mxGeometry x="50" y="40" width="210" height="60" as="geometry" />
        </mxCell>
      </root>
    </mxGraphModel>
  </diagram>
  <diagram name="Projects Desktop" id="vvF0D33BqeN3HSxoXHzo">
    <mxGraphModel grid="1" page="1" gridSize="10" guides="1" tooltips="1" connect="1" arrows="1" fold="1" pageScale="1" pageWidth="850" pageHeight="1100" math="0" shadow="0">
      <root>
        <mxCell id="9w5yvPU_3PNplOJ8deiw-0" />
        <mxCell id="9w5yvPU_3PNplOJ8deiw-1" parent="9w5yvPU_3PNplOJ8deiw-0" />
        <mxCell id="RaO3xoshC0XvqJtdxCJT-1" value="" style="rounded=0;whiteSpace=wrap;html=1;fillColor=#bac8d3;strokeColor=#23445d;" vertex="1" parent="9w5yvPU_3PNplOJ8deiw-1">
          <mxGeometry x="39" y="30" width="771.43" height="77" as="geometry" />
        </mxCell>
        <mxCell id="9w5yvPU_3PNplOJ8deiw-2" value="" style="rounded=0;whiteSpace=wrap;html=1;fillColor=#FCFCFC;strokeColor=#000000;" vertex="1" parent="9w5yvPU_3PNplOJ8deiw-1">
          <mxGeometry x="39" y="107" width="771.43" height="373" as="geometry" />
        </mxCell>
        <mxCell id="9w5yvPU_3PNplOJ8deiw-3" value="&lt;font face=&quot;Verdana&quot;&gt;Projects&lt;/font&gt;" style="rounded=1;whiteSpace=wrap;html=1;glass=0;shadow=0;" vertex="1" parent="9w5yvPU_3PNplOJ8deiw-1">
          <mxGeometry x="335" y="55" width="70" height="30" as="geometry" />
        </mxCell>
        <mxCell id="9w5yvPU_3PNplOJ8deiw-5" value="&lt;font face=&quot;Verdana&quot;&gt;About&lt;/font&gt;" style="rounded=1;whiteSpace=wrap;html=1;" vertex="1" parent="9w5yvPU_3PNplOJ8deiw-1">
          <mxGeometry x="655" y="55" width="70" height="30" as="geometry" />
        </mxCell>
        <mxCell id="9w5yvPU_3PNplOJ8deiw-6" value="&lt;font face=&quot;Verdana&quot;&gt;Providers&lt;/font&gt;" style="rounded=1;whiteSpace=wrap;html=1;" vertex="1" parent="9w5yvPU_3PNplOJ8deiw-1">
          <mxGeometry x="495" y="55" width="70" height="30" as="geometry" />
        </mxCell>
        <mxCell id="9w5yvPU_3PNplOJ8deiw-7" value="LOGO" style="ellipse;whiteSpace=wrap;html=1;aspect=fixed;rounded=0;" vertex="1" parent="9w5yvPU_3PNplOJ8deiw-1">
          <mxGeometry x="60" y="40" width="60" height="60" as="geometry" />
        </mxCell>
        <mxCell id="yrUQgUUM1fVVuO99kQqX-3" value="Projects" style="text;html=1;fontSize=24;fontStyle=1;verticalAlign=middle;align=center;fillColor=none;strokeColor=none;fontColor=#333333;" vertex="1" parent="9w5yvPU_3PNplOJ8deiw-1">
          <mxGeometry x="60" y="130" width="100" height="40" as="geometry" />
        </mxCell>
        <mxCell id="yrUQgUUM1fVVuO99kQqX-9" value="" style="group;align=left;rounded=1;" connectable="0" vertex="1" parent="9w5yvPU_3PNplOJ8deiw-1">
          <mxGeometry x="125" y="190" width="600" height="40" as="geometry" />
        </mxCell>
        <mxCell id="yrUQgUUM1fVVuO99kQqX-1" value="" style="rounded=1;whiteSpace=wrap;html=1;shadow=0;" vertex="1" parent="yrUQgUUM1fVVuO99kQqX-9">
          <mxGeometry width="600" height="40" as="geometry" />
        </mxCell>
        <mxCell id="yrUQgUUM1fVVuO99kQqX-2" value="" style="html=1;whiteSpace=wrap;shape=isoCube2;backgroundOutline=1;isoAngle=15;" vertex="1" parent="yrUQgUUM1fVVuO99kQqX-9">
          <mxGeometry x="15" y="8.889999999999986" width="20" height="22.22" as="geometry" />
        </mxCell>
        <mxCell id="yrUQgUUM1fVVuO99kQqX-4" value="&lt;font face=&quot;Verdana&quot;&gt;Project Name&lt;/font&gt;" style="text;html=1;align=left;verticalAlign=middle;whiteSpace=wrap;rounded=0;" vertex="1" parent="yrUQgUUM1fVVuO99kQqX-9">
          <mxGeometry x="55" y="5" width="380" height="30" as="geometry" />
        </mxCell>
        <UserObject label="Edit" id="yrUQgUUM1fVVuO99kQqX-7">
          <mxCell style="text;html=1;strokeColor=none;fillColor=none;whiteSpace=wrap;align=center;verticalAlign=middle;fontColor=#0000EE;fontStyle=4;" vertex="1" parent="yrUQgUUM1fVVuO99kQqX-9">
            <mxGeometry x="480" width="60" height="40" as="geometry" />
          </mxCell>
        </UserObject>
        <UserObject label="View" id="yrUQgUUM1fVVuO99kQqX-8">
          <mxCell style="text;html=1;strokeColor=none;fillColor=none;whiteSpace=wrap;align=center;verticalAlign=middle;fontColor=#0000EE;fontStyle=4;" vertex="1" parent="yrUQgUUM1fVVuO99kQqX-9">
            <mxGeometry x="540" width="60" height="40" as="geometry" />
          </mxCell>
        </UserObject>
        <mxCell id="yrUQgUUM1fVVuO99kQqX-10" value="" style="group;shadow=1;rounded=1;" connectable="0" vertex="1" parent="9w5yvPU_3PNplOJ8deiw-1">
          <mxGeometry x="125" y="240" width="600" height="40" as="geometry" />
        </mxCell>
        <mxCell id="yrUQgUUM1fVVuO99kQqX-11" value="" style="rounded=1;whiteSpace=wrap;html=1;" vertex="1" parent="yrUQgUUM1fVVuO99kQqX-10">
          <mxGeometry width="600" height="40" as="geometry" />
        </mxCell>
        <mxCell id="yrUQgUUM1fVVuO99kQqX-12" value="" style="html=1;whiteSpace=wrap;shape=isoCube2;backgroundOutline=1;isoAngle=15;" vertex="1" parent="yrUQgUUM1fVVuO99kQqX-10">
          <mxGeometry x="15" y="8.889999999999986" width="20" height="22.22" as="geometry" />
        </mxCell>
        <mxCell id="yrUQgUUM1fVVuO99kQqX-13" value="&lt;font face=&quot;Verdana&quot;&gt;Project Name&lt;/font&gt;" style="text;html=1;align=left;verticalAlign=middle;whiteSpace=wrap;rounded=0;" vertex="1" parent="yrUQgUUM1fVVuO99kQqX-10">
          <mxGeometry x="55" y="5" width="380" height="30" as="geometry" />
        </mxCell>
        <UserObject label="Edit" id="yrUQgUUM1fVVuO99kQqX-14">
          <mxCell style="text;html=1;strokeColor=none;fillColor=none;whiteSpace=wrap;align=center;verticalAlign=middle;fontColor=#0000EE;fontStyle=4;" vertex="1" parent="yrUQgUUM1fVVuO99kQqX-10">
            <mxGeometry x="480" width="60" height="40" as="geometry" />
          </mxCell>
        </UserObject>
        <UserObject label="View" id="yrUQgUUM1fVVuO99kQqX-15">
          <mxCell style="text;html=1;strokeColor=none;fillColor=none;whiteSpace=wrap;align=center;verticalAlign=middle;fontColor=#0000EE;fontStyle=4;" vertex="1" parent="yrUQgUUM1fVVuO99kQqX-10">
            <mxGeometry x="540" width="60" height="40" as="geometry" />
          </mxCell>
        </UserObject>
        <mxCell id="yrUQgUUM1fVVuO99kQqX-16" value="" style="group;shadow=1;fontFamily=Lato;" connectable="0" vertex="1" parent="9w5yvPU_3PNplOJ8deiw-1">
          <mxGeometry x="125" y="290" width="600" height="40" as="geometry" />
        </mxCell>
        <mxCell id="yrUQgUUM1fVVuO99kQqX-17" value="" style="rounded=1;whiteSpace=wrap;html=1;" vertex="1" parent="yrUQgUUM1fVVuO99kQqX-16">
          <mxGeometry width="600" height="40" as="geometry" />
        </mxCell>
        <mxCell id="yrUQgUUM1fVVuO99kQqX-18" value="" style="html=1;whiteSpace=wrap;shape=isoCube2;backgroundOutline=1;isoAngle=15;" vertex="1" parent="yrUQgUUM1fVVuO99kQqX-16">
          <mxGeometry x="15" y="8.889999999999986" width="20" height="22.22" as="geometry" />
        </mxCell>
        <mxCell id="yrUQgUUM1fVVuO99kQqX-19" value="&lt;font face=&quot;Verdana&quot;&gt;Project Name&lt;/font&gt;" style="text;html=1;align=left;verticalAlign=middle;whiteSpace=wrap;rounded=0;" vertex="1" parent="yrUQgUUM1fVVuO99kQqX-16">
          <mxGeometry x="55" y="5" width="380" height="30" as="geometry" />
        </mxCell>
        <UserObject label="Edit" id="yrUQgUUM1fVVuO99kQqX-20">
          <mxCell style="text;html=1;strokeColor=none;fillColor=none;whiteSpace=wrap;align=center;verticalAlign=middle;fontColor=#0000EE;fontStyle=4;" vertex="1" parent="yrUQgUUM1fVVuO99kQqX-16">
            <mxGeometry x="480" width="60" height="40" as="geometry" />
          </mxCell>
        </UserObject>
        <UserObject label="View" id="yrUQgUUM1fVVuO99kQqX-21">
          <mxCell style="text;html=1;strokeColor=none;fillColor=none;whiteSpace=wrap;align=center;verticalAlign=middle;fontColor=#0000EE;fontStyle=4;" vertex="1" parent="yrUQgUUM1fVVuO99kQqX-16">
            <mxGeometry x="540" width="60" height="40" as="geometry" />
          </mxCell>
        </UserObject>
        <mxCell id="yrUQgUUM1fVVuO99kQqX-22" value="Symbol can be chosen by the user for quick refrence" style="text;html=1;align=center;verticalAlign=middle;whiteSpace=wrap;rounded=0;" vertex="1" parent="9w5yvPU_3PNplOJ8deiw-1">
          <mxGeometry x="65" y="535" width="265" height="30" as="geometry" />
        </mxCell>
        <mxCell id="yrUQgUUM1fVVuO99kQqX-23" value="" style="endArrow=classic;html=1;rounded=0;entryX=0.5;entryY=1;entryDx=0;entryDy=0;entryPerimeter=0;opacity=50;" edge="1" parent="9w5yvPU_3PNplOJ8deiw-1" target="yrUQgUUM1fVVuO99kQqX-18">
          <mxGeometry width="50" height="50" relative="1" as="geometry">
            <mxPoint x="200" y="535" as="sourcePoint" />
            <mxPoint x="250" y="485" as="targetPoint" />
          </mxGeometry>
        </mxCell>
        <mxCell id="3I8n--oIfpeQ5baCVnn3-0" value="New +" style="dashed=0;html=1;rounded=1;fillColor=#0000CC;strokeColor=#FFFFFF;fontSize=12;align=center;fontStyle=1;strokeWidth=2;fontColor=#ffffff" vertex="1" parent="9w5yvPU_3PNplOJ8deiw-1">
          <mxGeometry x="730" y="130" width="60" height="30" as="geometry" />
        </mxCell>
        <mxCell id="3eUC_DJiryecM6CjVVP0-0" value="&lt;font face=&quot;Verdana&quot;&gt;Banner Logo&lt;/font&gt;" style="rounded=1;whiteSpace=wrap;html=1;" vertex="1" parent="9w5yvPU_3PNplOJ8deiw-1">
          <mxGeometry x="50" y="40" width="210" height="60" as="geometry" />
        </mxCell>
        <mxCell id="66jLzxbLwjV0aXFO8HnG-0" value="" style="endArrow=classic;html=1;" edge="1" parent="9w5yvPU_3PNplOJ8deiw-1">
          <mxGeometry width="50" height="50" relative="1" as="geometry">
            <mxPoint x="660" y="510" as="sourcePoint" />
            <mxPoint x="618" y="66" as="targetPoint" />
          </mxGeometry>
        </mxCell>
        <mxCell id="66jLzxbLwjV0aXFO8HnG-1" value="#BAC8D3" style="text;html=1;align=center;verticalAlign=middle;whiteSpace=wrap;rounded=0;" vertex="1" parent="9w5yvPU_3PNplOJ8deiw-1">
          <mxGeometry x="630" y="520" width="60" height="30" as="geometry" />
        </mxCell>
      </root>
    </mxGraphModel>
  </diagram>
  <diagram name="Project Mobile" id="u4R2N_OHq04Y3W6JYWOW">
    <mxGraphModel grid="1" page="1" gridSize="10" guides="1" tooltips="1" connect="1" arrows="1" fold="1" pageScale="1" pageWidth="850" pageHeight="1100" math="0" shadow="0">
      <root>
        <mxCell id="hypGEfp5BeYii24IQAre-0" />
        <mxCell id="hypGEfp5BeYii24IQAre-1" parent="hypGEfp5BeYii24IQAre-0" />
        <mxCell id="VajsMibXDA4QXRMS-qaz-0" value="" style="rounded=0;whiteSpace=wrap;html=1;strokeColor=#23445d;fillColor=#bac8d3;" vertex="1" parent="hypGEfp5BeYii24IQAre-1">
          <mxGeometry x="39" y="30" width="600" height="90" as="geometry" />
        </mxCell>
        <mxCell id="hypGEfp5BeYii24IQAre-2" value="" style="rounded=0;whiteSpace=wrap;html=1;fillColor=#FFFFFF;strokeColor=#000000;" vertex="1" parent="hypGEfp5BeYii24IQAre-1">
          <mxGeometry x="39" y="120" width="600" height="710" as="geometry" />
        </mxCell>
        <mxCell id="hypGEfp5BeYii24IQAre-8" value="Projects" style="text;strokeColor=none;fillColor=none;html=1;fontSize=24;fontStyle=1;verticalAlign=middle;align=center;" vertex="1" parent="hypGEfp5BeYii24IQAre-1">
          <mxGeometry x="60" y="140" width="100" height="40" as="geometry" />
        </mxCell>
        <mxCell id="hypGEfp5BeYii24IQAre-29" value="New +" style="dashed=0;html=1;rounded=1;fillColor=#0000CC;strokeColor=#FFFFFF;fontSize=12;align=center;fontStyle=1;strokeWidth=2;fontColor=#ffffff;verticalAlign=middle;fontFamily=Helvetica;" vertex="1" parent="hypGEfp5BeYii24IQAre-1">
          <mxGeometry x="550" y="140" width="67.75" height="30" as="geometry" />
        </mxCell>
        <mxCell id="a0S0QHIDJXhJIV5Lphcq-1" value="" style="group" connectable="0" vertex="1" parent="hypGEfp5BeYii24IQAre-1">
          <mxGeometry x="60" y="210" width="550" height="50" as="geometry" />
        </mxCell>
        <mxCell id="hypGEfp5BeYii24IQAre-10" value="" style="rounded=1;whiteSpace=wrap;html=1;" vertex="1" parent="a0S0QHIDJXhJIV5Lphcq-1">
          <mxGeometry width="550" height="50" as="geometry" />
        </mxCell>
        <mxCell id="hypGEfp5BeYii24IQAre-11" value="" style="html=1;whiteSpace=wrap;shape=isoCube2;backgroundOutline=1;isoAngle=15;" vertex="1" parent="a0S0QHIDJXhJIV5Lphcq-1">
          <mxGeometry x="15" y="11.11" width="25" height="27.78" as="geometry" />
        </mxCell>
        <mxCell id="hypGEfp5BeYii24IQAre-12" value="&lt;font face=&quot;Verdana&quot;&gt;Project Name&lt;/font&gt;" style="text;html=1;align=left;verticalAlign=middle;whiteSpace=wrap;rounded=0;fontSize=18;" vertex="1" parent="a0S0QHIDJXhJIV5Lphcq-1">
          <mxGeometry x="55" y="6.25" width="380" height="37.5" as="geometry" />
        </mxCell>
        <UserObject label="Edit" id="hypGEfp5BeYii24IQAre-13">
          <mxCell style="text;html=1;strokeColor=none;fillColor=none;whiteSpace=wrap;align=center;verticalAlign=middle;fontColor=#0000EE;fontStyle=4;" vertex="1" parent="a0S0QHIDJXhJIV5Lphcq-1">
            <mxGeometry x="430" width="60" height="50" as="geometry" />
          </mxCell>
        </UserObject>
        <UserObject label="View" id="hypGEfp5BeYii24IQAre-14">
          <mxCell style="text;html=1;strokeColor=none;fillColor=none;whiteSpace=wrap;align=center;verticalAlign=middle;fontColor=#0000EE;fontStyle=4;" vertex="1" parent="a0S0QHIDJXhJIV5Lphcq-1">
            <mxGeometry x="490" width="60" height="50" as="geometry" />
          </mxCell>
        </UserObject>
        <mxCell id="a0S0QHIDJXhJIV5Lphcq-2" value="" style="shape=image;html=1;verticalAlign=top;verticalLabelPosition=bottom;labelBackgroundColor=#ffffff;imageAspect=0;aspect=fixed;image=https://cdn4.iconfinder.com/data/icons/evil-icons-user-interface/64/menu-128.png;fontColor=#FFFFFF;imageBackground=none;imageBorder=none;fillColor=light-dark(#FF7FEE,var(--ge-dark-color, #121212));strokeColor=light-dark(#C666FF,#FFFFFF);" vertex="1" parent="hypGEfp5BeYii24IQAre-1">
          <mxGeometry x="565.5" y="52.75" width="44.5" height="44.5" as="geometry" />
        </mxCell>
        <mxCell id="a0S0QHIDJXhJIV5Lphcq-3" value="Banner Logo" style="rounded=1;whiteSpace=wrap;html=1;" vertex="1" parent="hypGEfp5BeYii24IQAre-1">
          <mxGeometry x="60" y="45" width="210" height="60" as="geometry" />
        </mxCell>
        <mxCell id="a0S0QHIDJXhJIV5Lphcq-4" value="" style="group" connectable="0" vertex="1" parent="hypGEfp5BeYii24IQAre-1">
          <mxGeometry x="60" y="280" width="550" height="50" as="geometry" />
        </mxCell>
        <mxCell id="a0S0QHIDJXhJIV5Lphcq-5" value="" style="rounded=1;whiteSpace=wrap;html=1;" vertex="1" parent="a0S0QHIDJXhJIV5Lphcq-4">
          <mxGeometry width="550" height="50" as="geometry" />
        </mxCell>
        <mxCell id="a0S0QHIDJXhJIV5Lphcq-6" value="" style="html=1;whiteSpace=wrap;shape=isoCube2;backgroundOutline=1;isoAngle=15;" vertex="1" parent="a0S0QHIDJXhJIV5Lphcq-4">
          <mxGeometry x="15" y="11.11" width="25" height="27.78" as="geometry" />
        </mxCell>
        <mxCell id="a0S0QHIDJXhJIV5Lphcq-7" value="&lt;font face=&quot;Verdana&quot;&gt;Project Name&lt;/font&gt;" style="text;html=1;align=left;verticalAlign=middle;whiteSpace=wrap;rounded=0;fontSize=18;" vertex="1" parent="a0S0QHIDJXhJIV5Lphcq-4">
          <mxGeometry x="55" y="6.25" width="380" height="37.5" as="geometry" />
        </mxCell>
        <UserObject label="Edit" id="a0S0QHIDJXhJIV5Lphcq-8">
          <mxCell style="text;html=1;strokeColor=none;fillColor=none;whiteSpace=wrap;align=center;verticalAlign=middle;fontColor=#0000EE;fontStyle=4;" vertex="1" parent="a0S0QHIDJXhJIV5Lphcq-4">
            <mxGeometry x="430" width="60" height="50" as="geometry" />
          </mxCell>
        </UserObject>
        <UserObject label="View" id="a0S0QHIDJXhJIV5Lphcq-9">
          <mxCell style="text;html=1;strokeColor=none;fillColor=none;whiteSpace=wrap;align=center;verticalAlign=middle;fontColor=#0000EE;fontStyle=4;" vertex="1" parent="a0S0QHIDJXhJIV5Lphcq-4">
            <mxGeometry x="490" width="60" height="50" as="geometry" />
          </mxCell>
        </UserObject>
        <mxCell id="a0S0QHIDJXhJIV5Lphcq-10" value="" style="group;fillColor=none;" connectable="0" vertex="1" parent="hypGEfp5BeYii24IQAre-1">
          <mxGeometry x="60" y="350" width="550" height="50" as="geometry" />
        </mxCell>
        <mxCell id="a0S0QHIDJXhJIV5Lphcq-11" value="" style="rounded=1;whiteSpace=wrap;html=1;" vertex="1" parent="a0S0QHIDJXhJIV5Lphcq-10">
          <mxGeometry width="550" height="50" as="geometry" />
        </mxCell>
        <mxCell id="a0S0QHIDJXhJIV5Lphcq-12" value="" style="html=1;whiteSpace=wrap;shape=isoCube2;backgroundOutline=1;isoAngle=15;" vertex="1" parent="a0S0QHIDJXhJIV5Lphcq-10">
          <mxGeometry x="15" y="11.11" width="25" height="27.78" as="geometry" />
        </mxCell>
        <mxCell id="a0S0QHIDJXhJIV5Lphcq-13" value="&lt;font face=&quot;Verdana&quot;&gt;Project Name&lt;/font&gt;" style="text;html=1;align=left;verticalAlign=middle;whiteSpace=wrap;rounded=0;fontSize=18;" vertex="1" parent="a0S0QHIDJXhJIV5Lphcq-10">
          <mxGeometry x="55" y="6.25" width="380" height="37.5" as="geometry" />
        </mxCell>
        <UserObject label="Edit" id="a0S0QHIDJXhJIV5Lphcq-14">
          <mxCell style="text;html=1;strokeColor=none;fillColor=none;whiteSpace=wrap;align=center;verticalAlign=middle;fontColor=#0000EE;fontStyle=4;" vertex="1" parent="a0S0QHIDJXhJIV5Lphcq-10">
            <mxGeometry x="430" width="60" height="50" as="geometry" />
          </mxCell>
        </UserObject>
        <UserObject label="View" id="a0S0QHIDJXhJIV5Lphcq-15">
          <mxCell style="text;html=1;strokeColor=none;fillColor=none;whiteSpace=wrap;align=center;verticalAlign=middle;fontColor=#0000EE;fontStyle=4;" vertex="1" parent="a0S0QHIDJXhJIV5Lphcq-10">
            <mxGeometry x="490" width="60" height="50" as="geometry" />
          </mxCell>
        </UserObject>
        <mxCell id="VajsMibXDA4QXRMS-qaz-3" value="" style="endArrow=classic;html=1;" edge="1" parent="hypGEfp5BeYii24IQAre-1">
          <mxGeometry width="50" height="50" relative="1" as="geometry">
            <mxPoint x="710" y="508.89" as="sourcePoint" />
            <mxPoint x="170" y="388.89" as="targetPoint" />
          </mxGeometry>
        </mxCell>
        <mxCell id="VajsMibXDA4QXRMS-qaz-4" value="18 pt Verdana" style="text;html=1;align=center;verticalAlign=middle;whiteSpace=wrap;rounded=0;" vertex="1" parent="hypGEfp5BeYii24IQAre-1">
          <mxGeometry x="680" y="520" width="60" height="30" as="geometry" />
        </mxCell>
        <mxCell id="Yepi8pqhyVbiibJMzbi5-0" value="" style="endArrow=classic;html=1;exitX=0;exitY=0.5;exitDx=0;exitDy=0;" edge="1" parent="hypGEfp5BeYii24IQAre-1" source="Yepi8pqhyVbiibJMzbi5-1">
          <mxGeometry width="50" height="50" relative="1" as="geometry">
            <mxPoint x="690" y="420" as="sourcePoint" />
            <mxPoint x="405" y="269" as="targetPoint" />
          </mxGeometry>
        </mxCell>
        <mxCell id="Yepi8pqhyVbiibJMzbi5-1" value="2vh margin" style="text;html=1;align=center;verticalAlign=middle;whiteSpace=wrap;rounded=0;" vertex="1" parent="hypGEfp5BeYii24IQAre-1">
          <mxGeometry x="680" y="330" width="90" height="30" as="geometry" />
        </mxCell>
        <mxCell id="qH5vJ336OyExN7lFnmkn-0" value="" style="endArrow=none;html=1;rounded=0;strokeColor=default;sourcePerimeterSpacing=2;targetPerimeterSpacing=2;entryX=0.75;entryY=1;entryDx=0;entryDy=0;exitX=0.75;exitY=0;exitDx=0;exitDy=0;" edge="1" parent="hypGEfp5BeYii24IQAre-1" source="a0S0QHIDJXhJIV5Lphcq-15" target="a0S0QHIDJXhJIV5Lphcq-9">
          <mxGeometry width="50" height="50" relative="1" as="geometry">
            <mxPoint x="589" y="350" as="sourcePoint" />
            <mxPoint x="639" y="300" as="targetPoint" />
          </mxGeometry>
        </mxCell>
      </root>
    </mxGraphModel>
  </diagram>
  <diagram id="_ORGI20TLYZdKzpknBWG" name="New Project Form">
    <mxGraphModel dx="1044" dy="631" grid="1" gridSize="10" guides="1" tooltips="1" connect="1" arrows="1" fold="1" page="1" pageScale="1" pageWidth="850" pageHeight="1100" math="0" shadow="0">
      <root>
        <mxCell id="0" />
        <mxCell id="1" parent="0" />
        <mxCell id="8b7-htLmScFb-pYJ3OH5-2" value="" style="rounded=0;whiteSpace=wrap;html=1;aspect=fixed;" parent="1" vertex="1">
          <mxGeometry x="50" y="40" width="771.43" height="450" as="geometry" />
        </mxCell>
        <mxCell id="05G1jkAD3M6QhjfeyyoU-1" value="" style="rounded=1;whiteSpace=wrap;html=1;" parent="1" vertex="1">
          <mxGeometry x="222.5" y="132.5" width="160" height="15" as="geometry" />
        </mxCell>
        <mxCell id="05G1jkAD3M6QhjfeyyoU-3" value="Project Name:" style="text;html=1;align=center;verticalAlign=middle;whiteSpace=wrap;rounded=0;" parent="1" vertex="1">
          <mxGeometry x="92.5" y="125" width="100" height="30" as="geometry" />
        </mxCell>
        <mxCell id="dIxB2W9CrqhojID61aD2-1" value="&lt;font style=&quot;font-size: 22px;&quot;&gt;Specs&lt;/font&gt;" style="text;html=1;align=center;verticalAlign=middle;whiteSpace=wrap;rounded=0;" parent="1" vertex="1">
          <mxGeometry x="80" y="170" width="60" height="30" as="geometry" />
        </mxCell>
        <mxCell id="dIxB2W9CrqhojID61aD2-2" value="CPU:" style="text;html=1;align=center;verticalAlign=middle;whiteSpace=wrap;rounded=0;" parent="1" vertex="1">
          <mxGeometry x="75" y="200" width="60" height="30" as="geometry" />
        </mxCell>
        <mxCell id="dIxB2W9CrqhojID61aD2-3" value="Storage:" style="text;html=1;align=center;verticalAlign=middle;whiteSpace=wrap;rounded=0;" parent="1" vertex="1">
          <mxGeometry x="60" y="220" width="100" height="30" as="geometry" />
        </mxCell>
        <mxCell id="dIxB2W9CrqhojID61aD2-4" value="Memory:" style="text;html=1;align=center;verticalAlign=middle;whiteSpace=wrap;rounded=0;" parent="1" vertex="1">
          <mxGeometry x="60" y="242.5" width="100" height="30" as="geometry" />
        </mxCell>
        <mxCell id="sE31Z7KNJdT6cchT5-6o-1" value="Project Description:" style="text;html=1;align=center;verticalAlign=middle;whiteSpace=wrap;rounded=0;" parent="1" vertex="1">
          <mxGeometry x="92.5" y="150" width="132.5" height="25" as="geometry" />
        </mxCell>
        <mxCell id="5aJC0FZ2v3_JWvNOKpaJ-1" value="&lt;font style=&quot;font-size: 22px;&quot;&gt;General&lt;/font&gt;" style="text;html=1;align=center;verticalAlign=middle;whiteSpace=wrap;rounded=0;" parent="1" vertex="1">
          <mxGeometry x="87.5" y="100" width="60" height="30" as="geometry" />
        </mxCell>
        <mxCell id="5aJC0FZ2v3_JWvNOKpaJ-4" value="" style="rounded=1;whiteSpace=wrap;html=1;" parent="1" vertex="1">
          <mxGeometry x="222.5" y="155" width="160" height="15" as="geometry" />
        </mxCell>
        <mxCell id="5aJC0FZ2v3_JWvNOKpaJ-5" value="" style="rounded=1;whiteSpace=wrap;html=1;" parent="1" vertex="1">
          <mxGeometry x="160" y="257.5" width="160" height="15" as="geometry" />
        </mxCell>
        <mxCell id="5aJC0FZ2v3_JWvNOKpaJ-6" value="" style="rounded=1;whiteSpace=wrap;html=1;" parent="1" vertex="1">
          <mxGeometry x="160" y="207.5" width="160" height="15" as="geometry" />
        </mxCell>
        <mxCell id="5aJC0FZ2v3_JWvNOKpaJ-7" value="" style="rounded=1;whiteSpace=wrap;html=1;" parent="1" vertex="1">
          <mxGeometry x="160" y="230" width="160" height="15" as="geometry" />
        </mxCell>
        <mxCell id="IPI-K1lhqQd0Y9mVwMvO-1" value="Bandwidth:" style="text;html=1;align=center;verticalAlign=middle;whiteSpace=wrap;rounded=0;" parent="1" vertex="1">
          <mxGeometry x="65" y="272.5" width="100" height="30" as="geometry" />
        </mxCell>
        <mxCell id="IPI-K1lhqQd0Y9mVwMvO-2" value="" style="rounded=1;whiteSpace=wrap;html=1;" parent="1" vertex="1">
          <mxGeometry x="160" y="287.5" width="160" height="15" as="geometry" />
        </mxCell>
        <mxCell id="IPI-K1lhqQd0Y9mVwMvO-3" value="Calculate" style="rounded=1;fillColor=#0057D8;strokeColor=none;html=1;whiteSpace=wrap;fontColor=#ffffff;align=center;verticalAlign=middle;fontStyle=0;fontSize=12;sketch=0;" parent="1" vertex="1">
          <mxGeometry x="690" y="417" width="86" height="33" as="geometry" />
        </mxCell>
        <mxCell id="jCsgyJ-BiJwOuKkqwANT-1" value="" style="rounded=1;whiteSpace=wrap;html=1;" parent="1" vertex="1">
          <mxGeometry x="147.5" y="350" width="160" height="15" as="geometry" />
        </mxCell>
        <mxCell id="jCsgyJ-BiJwOuKkqwANT-2" value="Region:" style="text;html=1;align=center;verticalAlign=middle;whiteSpace=wrap;rounded=0;" parent="1" vertex="1">
          <mxGeometry x="80" y="342.5" width="60" height="30" as="geometry" />
        </mxCell>
        <mxCell id="jCsgyJ-BiJwOuKkqwANT-3" value="&lt;font style=&quot;font-size: 22px;&quot;&gt;Location&lt;/font&gt;" style="text;html=1;align=center;verticalAlign=middle;whiteSpace=wrap;rounded=0;" parent="1" vertex="1">
          <mxGeometry x="92.5" y="320" width="60" height="30" as="geometry" />
        </mxCell>
        <mxCell id="gvv-KZe12FQ9_siiaDZZ-1" value="New Project: " style="text;strokeColor=none;fillColor=none;html=1;fontSize=24;fontStyle=1;verticalAlign=middle;align=center;" parent="1" vertex="1">
          <mxGeometry x="60" y="60" width="150" height="40" as="geometry" />
        </mxCell>
        <mxCell id="eWfvwEBcmYG1Lr-63QMr-1" value="Note: nav not shown but present" style="text;html=1;align=center;verticalAlign=middle;whiteSpace=wrap;rounded=0;fontStyle=2" parent="1" vertex="1">
          <mxGeometry x="49" y="10" width="225" height="30" as="geometry" />
        </mxCell>
      </root>
    </mxGraphModel>
  </diagram>
  <diagram name="Providers" id="WjcpJNP3YB7dS0ZE5M3d">
    <mxGraphModel grid="1" page="1" gridSize="10" guides="1" tooltips="1" connect="1" arrows="1" fold="1" pageScale="1" pageWidth="850" pageHeight="1100" math="0" shadow="0">
      <root>
        <mxCell id="zPMMLrVdEEiuBGSDsRhS-0" />
        <mxCell id="zPMMLrVdEEiuBGSDsRhS-1" parent="zPMMLrVdEEiuBGSDsRhS-0" />
        <mxCell id="zPMMLrVdEEiuBGSDsRhS-2" value="" style="rounded=0;whiteSpace=wrap;html=1;aspect=fixed;fillColor=#f5f5f5;fontColor=#333333;strokeColor=#666666;" vertex="1" parent="zPMMLrVdEEiuBGSDsRhS-1">
          <mxGeometry x="39" y="30" width="771.43" height="450" as="geometry" />
        </mxCell>
        <mxCell id="zPMMLrVdEEiuBGSDsRhS-3" value="Projects" style="rounded=0;whiteSpace=wrap;html=1;" vertex="1" parent="zPMMLrVdEEiuBGSDsRhS-1">
          <mxGeometry x="333" y="55" width="70" height="30" as="geometry" />
        </mxCell>
        <mxCell id="zPMMLrVdEEiuBGSDsRhS-4" value="About" style="rounded=0;whiteSpace=wrap;html=1;" vertex="1" parent="zPMMLrVdEEiuBGSDsRhS-1">
          <mxGeometry x="653" y="55" width="70" height="30" as="geometry" />
        </mxCell>
        <mxCell id="zPMMLrVdEEiuBGSDsRhS-5" value="Providers" style="rounded=0;whiteSpace=wrap;html=1;" vertex="1" parent="zPMMLrVdEEiuBGSDsRhS-1">
          <mxGeometry x="493" y="55" width="70" height="30" as="geometry" />
        </mxCell>
        <mxCell id="zPMMLrVdEEiuBGSDsRhS-6" value="LOGO" style="ellipse;whiteSpace=wrap;html=1;aspect=fixed;rounded=0;" vertex="1" parent="zPMMLrVdEEiuBGSDsRhS-1">
          <mxGeometry x="60" y="40" width="60" height="60" as="geometry" />
        </mxCell>
        <mxCell id="zPMMLrVdEEiuBGSDsRhS-7" value="" style="endArrow=none;html=1;rounded=0;exitX=0.001;exitY=0.172;exitDx=0;exitDy=0;exitPerimeter=0;entryX=1.001;entryY=0.17;entryDx=0;entryDy=0;entryPerimeter=0;" edge="1" parent="zPMMLrVdEEiuBGSDsRhS-1" source="zPMMLrVdEEiuBGSDsRhS-2" target="zPMMLrVdEEiuBGSDsRhS-2">
          <mxGeometry width="50" height="50" relative="1" as="geometry">
            <mxPoint x="40" y="107" as="sourcePoint" />
            <mxPoint x="813" y="107" as="targetPoint" />
          </mxGeometry>
        </mxCell>
        <mxCell id="zPMMLrVdEEiuBGSDsRhS-8" value="Providers" style="text;strokeColor=none;fillColor=none;html=1;fontSize=24;fontStyle=1;verticalAlign=middle;align=center;" vertex="1" parent="zPMMLrVdEEiuBGSDsRhS-1">
          <mxGeometry x="60" y="130" width="110" height="40" as="geometry" />
        </mxCell>
        <mxCell id="Y2xICnZp6mDQtZQSE7wC-4" value="" style="group" connectable="0" vertex="1" parent="zPMMLrVdEEiuBGSDsRhS-1">
          <mxGeometry x="128" y="420" width="595" height="40" as="geometry" />
        </mxCell>
        <mxCell id="Y2xICnZp6mDQtZQSE7wC-0" value="" style="rounded=1;whiteSpace=wrap;html=1;" vertex="1" parent="Y2xICnZp6mDQtZQSE7wC-4">
          <mxGeometry width="595" height="40" as="geometry" />
        </mxCell>
        <mxCell id="Y2xICnZp6mDQtZQSE7wC-1" value="Cloud Provider B" style="text;html=1;align=left;verticalAlign=middle;whiteSpace=wrap;rounded=0;" vertex="1" parent="Y2xICnZp6mDQtZQSE7wC-4">
          <mxGeometry x="55" y="5" width="380" height="30" as="geometry" />
        </mxCell>
        <mxCell id="Y2xICnZp6mDQtZQSE7wC-3" value="&lt;strong&gt;∨&lt;/strong&gt;" style="text;html=1;align=center;verticalAlign=middle;whiteSpace=wrap;rounded=0;fontSize=15;rotation=90;" vertex="1" parent="Y2xICnZp6mDQtZQSE7wC-4">
          <mxGeometry x="555" y="5" width="40" height="30" as="geometry" />
        </mxCell>
        <mxCell id="Y2xICnZp6mDQtZQSE7wC-7" value="" style="image;sketch=0;aspect=fixed;html=1;points=[];align=center;fontSize=12;image=img/lib/mscae/Cloud_Service.svg;" vertex="1" parent="Y2xICnZp6mDQtZQSE7wC-4">
          <mxGeometry x="12" y="5" width="35.71" height="30" as="geometry" />
        </mxCell>
        <mxCell id="Y2xICnZp6mDQtZQSE7wC-6" value="" style="group;fillColor=none;" connectable="0" vertex="1" parent="zPMMLrVdEEiuBGSDsRhS-1">
          <mxGeometry x="128" y="190" width="607" height="210" as="geometry" />
        </mxCell>
        <mxCell id="thY4On9AroA9HcK-4fPT-0" value="" style="rounded=1;whiteSpace=wrap;html=1;" vertex="1" parent="Y2xICnZp6mDQtZQSE7wC-6">
          <mxGeometry width="595" height="210" as="geometry" />
        </mxCell>
        <mxCell id="zPMMLrVdEEiuBGSDsRhS-10" value="" style="rounded=1;whiteSpace=wrap;html=1;" vertex="1" parent="Y2xICnZp6mDQtZQSE7wC-6">
          <mxGeometry width="595" height="40" as="geometry" />
        </mxCell>
        <mxCell id="zPMMLrVdEEiuBGSDsRhS-12" value="Cloud Provider A" style="text;html=1;align=left;verticalAlign=middle;whiteSpace=wrap;rounded=0;" vertex="1" parent="Y2xICnZp6mDQtZQSE7wC-6">
          <mxGeometry x="55" y="5" width="380" height="30" as="geometry" />
        </mxCell>
        <mxCell id="Il01-jA4SKFqogIcV6d3-0" value="" style="image;aspect=fixed;html=1;points=[];align=center;fontSize=12;image=img/lib/azure2/compute/Cloud_Services_Classic.svg;" vertex="1" parent="Y2xICnZp6mDQtZQSE7wC-6">
          <mxGeometry x="10.379999999999995" y="7.5" width="34.62" height="25" as="geometry" />
        </mxCell>
        <mxCell id="thY4On9AroA9HcK-4fPT-1" value="&lt;strong&gt;∨&lt;/strong&gt;" style="text;html=1;align=center;verticalAlign=middle;whiteSpace=wrap;rounded=0;fontSize=15;" vertex="1" parent="Y2xICnZp6mDQtZQSE7wC-6">
          <mxGeometry x="555" y="5" width="40" height="30" as="geometry" />
        </mxCell>
        <mxCell id="z7s7Rr6DzkRn-20tE5ID-2" value="" style="shape=table;startSize=0;container=1;collapsible=0;childLayout=tableLayout;fontSize=9;fillColor=none;strokeColor=none;" vertex="1" parent="Y2xICnZp6mDQtZQSE7wC-6">
          <mxGeometry y="40" width="310" height="80" as="geometry" />
        </mxCell>
        <mxCell id="z7s7Rr6DzkRn-20tE5ID-3" value="" style="shape=tableRow;horizontal=0;startSize=0;swimlaneHead=0;swimlaneBody=0;strokeColor=inherit;top=0;left=0;bottom=0;right=0;collapsible=0;dropTarget=0;fillColor=none;points=[[0,0.5],[1,0.5]];portConstraint=eastwest;fontSize=16;" vertex="1" parent="z7s7Rr6DzkRn-20tE5ID-2">
          <mxGeometry width="310" height="20" as="geometry" />
        </mxCell>
        <mxCell id="z7s7Rr6DzkRn-20tE5ID-4" value="Plan Name" style="shape=partialRectangle;html=1;whiteSpace=wrap;connectable=0;strokeColor=inherit;overflow=hidden;fillColor=none;top=0;left=0;bottom=0;right=0;pointerEvents=1;fontSize=16;" vertex="1" parent="z7s7Rr6DzkRn-20tE5ID-3">
          <mxGeometry width="103" height="20" as="geometry">
            <mxRectangle width="103" height="20" as="alternateBounds" />
          </mxGeometry>
        </mxCell>
        <mxCell id="z7s7Rr6DzkRn-20tE5ID-5" value="CPUs" style="shape=partialRectangle;html=1;whiteSpace=wrap;connectable=0;strokeColor=inherit;overflow=hidden;fillColor=none;top=0;left=0;bottom=0;right=0;pointerEvents=1;fontSize=16;" vertex="1" parent="z7s7Rr6DzkRn-20tE5ID-3">
          <mxGeometry x="103" width="104" height="20" as="geometry">
            <mxRectangle width="104" height="20" as="alternateBounds" />
          </mxGeometry>
        </mxCell>
        <mxCell id="z7s7Rr6DzkRn-20tE5ID-6" value="Memory" style="shape=partialRectangle;html=1;whiteSpace=wrap;connectable=0;strokeColor=inherit;overflow=hidden;fillColor=none;top=0;left=0;bottom=0;right=0;pointerEvents=1;fontSize=16;" vertex="1" parent="z7s7Rr6DzkRn-20tE5ID-3">
          <mxGeometry x="207" width="103" height="20" as="geometry">
            <mxRectangle width="103" height="20" as="alternateBounds" />
          </mxGeometry>
        </mxCell>
        <mxCell id="z7s7Rr6DzkRn-20tE5ID-7" value="" style="shape=tableRow;horizontal=0;startSize=0;swimlaneHead=0;swimlaneBody=0;strokeColor=inherit;top=0;left=0;bottom=0;right=0;collapsible=0;dropTarget=0;fillColor=none;points=[[0,0.5],[1,0.5]];portConstraint=eastwest;fontSize=16;" vertex="1" parent="z7s7Rr6DzkRn-20tE5ID-2">
          <mxGeometry y="20" width="310" height="30" as="geometry" />
        </mxCell>
        <mxCell id="z7s7Rr6DzkRn-20tE5ID-8" value="shared-1x" style="shape=partialRectangle;html=1;whiteSpace=wrap;connectable=0;strokeColor=inherit;overflow=hidden;fillColor=none;top=0;left=0;bottom=0;right=0;pointerEvents=1;fontSize=14;" vertex="1" parent="z7s7Rr6DzkRn-20tE5ID-7">
          <mxGeometry width="103" height="30" as="geometry">
            <mxRectangle width="103" height="30" as="alternateBounds" />
          </mxGeometry>
        </mxCell>
        <mxCell id="z7s7Rr6DzkRn-20tE5ID-9" value="1" style="shape=partialRectangle;html=1;whiteSpace=wrap;connectable=0;strokeColor=inherit;overflow=hidden;fillColor=none;top=0;left=0;bottom=0;right=0;pointerEvents=1;fontSize=14;" vertex="1" parent="z7s7Rr6DzkRn-20tE5ID-7">
          <mxGeometry x="103" width="104" height="30" as="geometry">
            <mxRectangle width="104" height="30" as="alternateBounds" />
          </mxGeometry>
        </mxCell>
        <mxCell id="z7s7Rr6DzkRn-20tE5ID-10" value="1GB" style="shape=partialRectangle;html=1;whiteSpace=wrap;connectable=0;strokeColor=inherit;overflow=hidden;fillColor=none;top=0;left=0;bottom=0;right=0;pointerEvents=1;fontSize=14;" vertex="1" parent="z7s7Rr6DzkRn-20tE5ID-7">
          <mxGeometry x="207" width="103" height="30" as="geometry">
            <mxRectangle width="103" height="30" as="alternateBounds" />
          </mxGeometry>
        </mxCell>
        <mxCell id="z7s7Rr6DzkRn-20tE5ID-11" value="" style="shape=tableRow;horizontal=0;startSize=0;swimlaneHead=0;swimlaneBody=0;strokeColor=inherit;top=0;left=0;bottom=0;right=0;collapsible=0;dropTarget=0;fillColor=none;points=[[0,0.5],[1,0.5]];portConstraint=eastwest;fontSize=16;" vertex="1" parent="z7s7Rr6DzkRn-20tE5ID-2">
          <mxGeometry y="50" width="310" height="30" as="geometry" />
        </mxCell>
        <mxCell id="z7s7Rr6DzkRn-20tE5ID-12" value="dedicated-2x" style="shape=partialRectangle;html=1;whiteSpace=wrap;connectable=0;strokeColor=inherit;overflow=hidden;fillColor=none;top=0;left=0;bottom=0;right=0;pointerEvents=1;fontSize=14;" vertex="1" parent="z7s7Rr6DzkRn-20tE5ID-11">
          <mxGeometry width="103" height="30" as="geometry">
            <mxRectangle width="103" height="30" as="alternateBounds" />
          </mxGeometry>
        </mxCell>
        <mxCell id="z7s7Rr6DzkRn-20tE5ID-13" value="2" style="shape=partialRectangle;html=1;whiteSpace=wrap;connectable=0;strokeColor=inherit;overflow=hidden;fillColor=none;top=0;left=0;bottom=0;right=0;pointerEvents=1;fontSize=14;" vertex="1" parent="z7s7Rr6DzkRn-20tE5ID-11">
          <mxGeometry x="103" width="104" height="30" as="geometry">
            <mxRectangle width="104" height="30" as="alternateBounds" />
          </mxGeometry>
        </mxCell>
        <mxCell id="z7s7Rr6DzkRn-20tE5ID-14" value="2GB" style="shape=partialRectangle;html=1;whiteSpace=wrap;connectable=0;strokeColor=inherit;overflow=hidden;fillColor=none;top=0;left=0;bottom=0;right=0;pointerEvents=1;fontSize=14;" vertex="1" parent="z7s7Rr6DzkRn-20tE5ID-11">
          <mxGeometry x="207" width="103" height="30" as="geometry">
            <mxRectangle width="103" height="30" as="alternateBounds" />
          </mxGeometry>
        </mxCell>
        <mxCell id="Y2xICnZp6mDQtZQSE7wC-21" value="" style="shape=table;startSize=0;container=1;collapsible=0;childLayout=tableLayout;fontSize=9;fillColor=none;strokeColor=none;" vertex="1" parent="Y2xICnZp6mDQtZQSE7wC-6">
          <mxGeometry x="297" y="41" width="310" height="79" as="geometry" />
        </mxCell>
        <mxCell id="Y2xICnZp6mDQtZQSE7wC-22" value="" style="shape=tableRow;horizontal=0;startSize=0;swimlaneHead=0;swimlaneBody=0;strokeColor=inherit;top=0;left=0;bottom=0;right=0;collapsible=0;dropTarget=0;fillColor=none;points=[[0,0.5],[1,0.5]];portConstraint=eastwest;fontSize=16;" vertex="1" parent="Y2xICnZp6mDQtZQSE7wC-21">
          <mxGeometry width="310" height="20" as="geometry" />
        </mxCell>
        <mxCell id="Y2xICnZp6mDQtZQSE7wC-23" value="Storage" style="shape=partialRectangle;html=1;whiteSpace=wrap;connectable=0;strokeColor=inherit;overflow=hidden;fillColor=none;top=0;left=0;bottom=0;right=0;pointerEvents=1;fontSize=16;" vertex="1" parent="Y2xICnZp6mDQtZQSE7wC-22">
          <mxGeometry width="103" height="20" as="geometry">
            <mxRectangle width="103" height="20" as="alternateBounds" />
          </mxGeometry>
        </mxCell>
        <mxCell id="Y2xICnZp6mDQtZQSE7wC-24" value="Bandwidth" style="shape=partialRectangle;html=1;whiteSpace=wrap;connectable=0;strokeColor=inherit;overflow=hidden;fillColor=none;top=0;left=0;bottom=0;right=0;pointerEvents=1;fontSize=16;" vertex="1" parent="Y2xICnZp6mDQtZQSE7wC-22">
          <mxGeometry x="103" width="104" height="20" as="geometry">
            <mxRectangle width="104" height="20" as="alternateBounds" />
          </mxGeometry>
        </mxCell>
        <mxCell id="Y2xICnZp6mDQtZQSE7wC-25" value="Price" style="shape=partialRectangle;html=1;whiteSpace=wrap;connectable=0;strokeColor=inherit;overflow=hidden;fillColor=none;top=0;left=0;bottom=0;right=0;pointerEvents=1;fontSize=16;" vertex="1" parent="Y2xICnZp6mDQtZQSE7wC-22">
          <mxGeometry x="207" width="103" height="20" as="geometry">
            <mxRectangle width="103" height="20" as="alternateBounds" />
          </mxGeometry>
        </mxCell>
        <mxCell id="Y2xICnZp6mDQtZQSE7wC-26" value="" style="shape=tableRow;horizontal=0;startSize=0;swimlaneHead=0;swimlaneBody=0;strokeColor=inherit;top=0;left=0;bottom=0;right=0;collapsible=0;dropTarget=0;fillColor=none;points=[[0,0.5],[1,0.5]];portConstraint=eastwest;fontSize=16;" vertex="1" parent="Y2xICnZp6mDQtZQSE7wC-21">
          <mxGeometry y="20" width="310" height="29" as="geometry" />
        </mxCell>
        <mxCell id="Y2xICnZp6mDQtZQSE7wC-27" value="8GB" style="shape=partialRectangle;html=1;whiteSpace=wrap;connectable=0;strokeColor=inherit;overflow=hidden;fillColor=none;top=0;left=0;bottom=0;right=0;pointerEvents=1;fontSize=14;" vertex="1" parent="Y2xICnZp6mDQtZQSE7wC-26">
          <mxGeometry width="103" height="29" as="geometry">
            <mxRectangle width="103" height="29" as="alternateBounds" />
          </mxGeometry>
        </mxCell>
        <mxCell id="Y2xICnZp6mDQtZQSE7wC-28" value="0GB" style="shape=partialRectangle;html=1;whiteSpace=wrap;connectable=0;strokeColor=inherit;overflow=hidden;fillColor=none;top=0;left=0;bottom=0;right=0;pointerEvents=1;fontSize=14;" vertex="1" parent="Y2xICnZp6mDQtZQSE7wC-26">
          <mxGeometry x="103" width="104" height="29" as="geometry">
            <mxRectangle width="104" height="29" as="alternateBounds" />
          </mxGeometry>
        </mxCell>
        <mxCell id="Y2xICnZp6mDQtZQSE7wC-29" value="$2.00" style="shape=partialRectangle;html=1;whiteSpace=wrap;connectable=0;strokeColor=inherit;overflow=hidden;fillColor=none;top=0;left=0;bottom=0;right=0;pointerEvents=1;fontSize=14;" vertex="1" parent="Y2xICnZp6mDQtZQSE7wC-26">
          <mxGeometry x="207" width="103" height="29" as="geometry">
            <mxRectangle width="103" height="29" as="alternateBounds" />
          </mxGeometry>
        </mxCell>
        <mxCell id="Y2xICnZp6mDQtZQSE7wC-30" value="" style="shape=tableRow;horizontal=0;startSize=0;swimlaneHead=0;swimlaneBody=0;strokeColor=inherit;top=0;left=0;bottom=0;right=0;collapsible=0;dropTarget=0;fillColor=none;points=[[0,0.5],[1,0.5]];portConstraint=eastwest;fontSize=16;" vertex="1" parent="Y2xICnZp6mDQtZQSE7wC-21">
          <mxGeometry y="49" width="310" height="30" as="geometry" />
        </mxCell>
        <mxCell id="Y2xICnZp6mDQtZQSE7wC-31" value="20GB" style="shape=partialRectangle;html=1;whiteSpace=wrap;connectable=0;strokeColor=inherit;overflow=hidden;fillColor=none;top=0;left=0;bottom=0;right=0;pointerEvents=1;fontSize=14;" vertex="1" parent="Y2xICnZp6mDQtZQSE7wC-30">
          <mxGeometry width="103" height="30" as="geometry">
            <mxRectangle width="103" height="30" as="alternateBounds" />
          </mxGeometry>
        </mxCell>
        <mxCell id="Y2xICnZp6mDQtZQSE7wC-32" value="1TB" style="shape=partialRectangle;html=1;whiteSpace=wrap;connectable=0;strokeColor=inherit;overflow=hidden;fillColor=none;top=0;left=0;bottom=0;right=0;pointerEvents=1;fontSize=14;" vertex="1" parent="Y2xICnZp6mDQtZQSE7wC-30">
          <mxGeometry x="103" width="104" height="30" as="geometry">
            <mxRectangle width="104" height="30" as="alternateBounds" />
          </mxGeometry>
        </mxCell>
        <mxCell id="Y2xICnZp6mDQtZQSE7wC-33" value="$5.00" style="shape=partialRectangle;html=1;whiteSpace=wrap;connectable=0;strokeColor=inherit;overflow=hidden;fillColor=none;top=0;left=0;bottom=0;right=0;pointerEvents=1;fontSize=14;" vertex="1" parent="Y2xICnZp6mDQtZQSE7wC-30">
          <mxGeometry x="207" width="103" height="30" as="geometry">
            <mxRectangle width="103" height="30" as="alternateBounds" />
          </mxGeometry>
        </mxCell>
        <mxCell id="PT_Tb9bcebDtygzVlH76-0" value="Banner Logo" style="rounded=1;whiteSpace=wrap;html=1;" vertex="1" parent="zPMMLrVdEEiuBGSDsRhS-1">
          <mxGeometry x="50" y="40" width="210" height="60" as="geometry" />
        </mxCell>
      </root>
    </mxGraphModel>
  </diagram>
</mxfile>
